<?xml version="1.0" encoding="utf-8"?>
<!-- Generator: Adobe Illustrator 23.0.1, SVG Export Plug-In . SVG Version: 6.00 Build 0)  -->
<svg version="1.1" id="Layer_1" xmlns="http://www.w3.org/2000/svg" xmlns:xlink="http://www.w3.org/1999/xlink" x="0px" y="0px"
	 viewBox="0 0 1024 1024" style="enable-background:new 0 0 1024 1024;" xml:space="preserve">
<style type="text/css">
	.st0{fill:#FFFFFF;}
</style>
<rect class="st0" width="1024" height="1024"/>
<g>
	<path d="M110.61,783.08c-5.74,0.76-7.25,8.36-2.24,11.25l296.88,171.41L286.35,853.72l-85.28-80.34c-1.33-1.25-3.14-1.84-4.95-1.6
		L110.61,783.08z"/>
	<path d="M511.98,770.96l-253.63-0.31c-5.49-0.01-8.16,6.71-4.16,10.47l248.18,233.81l9.63,9.07l257.81-242.89
		c4-3.76,1.33-10.48-4.16-10.47l-253.63,0.31C512.02,770.96,511.99,770.96,511.98,770.96z"/>
	<path d="M764.13,828.77L656.6,930.08c-5.23,4.93,0.96,13.25,7.18,9.66l251.84-145.41c5.01-2.89,3.5-10.5-2.24-11.25l-85.51-11.3
		c-1.81-0.24-3.62,0.35-4.95,1.6L764.13,828.77z"/>
	<path d="M550.25,234.54c-4.77-0.21-7.9,4.92-5.53,9.06l63.17,110.36l200.64,350.52c2.64,4.61,9.5,3.84,11.05-1.24L955.2,259.97
		c1.16-3.79-1.57-7.65-5.53-7.83L550.25,234.54z"/>
	<path d="M473.76,234.54l-399.43,17.6c-3.96,0.17-6.69,4.04-5.53,7.83l135.62,443.28c1.55,5.07,8.42,5.84,11.05,1.24l193.79-338.54
		l70.03-122.34C481.66,239.46,478.53,234.33,473.76,234.54z"/>
	<path d="M527.4,6.07V196.9c0,3.24,2.55,5.91,5.79,6.05l357.82,15.77c6.34,0.28,8.79-8.13,3.3-11.3L536.49,0.82
		C532.45-1.51,527.4,1.4,527.4,6.07z"/>
	<path d="M962.63,751.61V381.46c0-6.96-9.82-8.43-11.85-1.77L841.94,735.45c-1.1,3.58,1.29,7.29,5,7.78l108.84,14.38
		C959.41,758.09,962.63,755.27,962.63,751.61z"/>
	<path d="M487.52,0.82l-357.83,206.6c-5.49,3.17-3.04,11.58,3.3,11.3l357.83-15.77c3.24-0.14,5.79-2.81,5.79-6.05V6.07
		C496.61,1.4,491.56-1.51,487.52,0.82z"/>
	<path d="M61.37,381.46v370.14c0,3.66,3.22,6.49,6.85,6.01l108.84-14.38c3.71-0.49,6.1-4.2,5-7.78L73.22,379.69
		C71.19,373.03,61.37,374.5,61.37,381.46z"/>
	<path d="M788.07,730.75l-191.46-334.5l-79.35-138.62c-2.33-4.07-8.19-4.07-10.52,0l-92.8,162.12L235.93,730.75
		c-2.31,4.04,0.6,9.06,5.25,9.07l270.84,0.34l2.53,0l268.28-0.33C787.47,739.81,790.38,734.79,788.07,730.75z M493.2,665.74H384.63
		V642.3l67.13-89.51c3.88-5.12,6.91-10.44,9.07-15.96c2.16-5.52,3.24-10.66,3.24-15.43v-0.26c0-7.68-2.25-13.64-6.75-17.88
		c-4.5-4.24-10.9-6.36-19.2-6.36c-7.86,0-14.21,2.32-19.07,6.95c-4.86,4.63-7.81,11.19-8.87,19.66v0.13h-27.94v-0.13
		c1.59-11.03,4.83-20.46,9.73-28.27c4.9-7.81,11.23-13.77,19-17.88c7.77-4.1,16.73-6.16,26.88-6.16c11.47,0,21.27,1.97,29.4,5.89
		c8.12,3.93,14.3,9.65,18.54,17.15c4.24,7.5,6.36,16.55,6.36,27.14v0.13c0,6.8-1.41,13.9-4.24,21.32
		c-2.83,7.41-6.75,14.56-11.78,21.45l-55.74,75.74h72.83V665.74z M637.53,613.04c0,17.3-4.68,30.74-14.04,40.32
		c-9.36,9.58-23,14.37-40.91,14.37c-18.01,0-31.67-4.81-40.98-14.43c-9.31-9.62-13.97-23.04-13.97-40.25v-87.52
		c0-17.3,4.68-30.74,14.04-40.32c9.36-9.58,22.99-14.37,40.91-14.37c18.01,0,31.67,4.77,40.98,14.3c9.31,9.53,13.97,23,13.97,40.38
		V613.04z"/>
	<path d="M582.58,496.52c-9.62,0-16.68,2.5-21.19,7.48c-4.5,4.99-6.75,12.16-6.75,21.52v87.52c0,9.36,2.27,16.53,6.82,21.52
		c4.55,4.99,11.59,7.48,21.12,7.48c9.53,0,16.57-2.49,21.12-7.48c4.55-4.99,6.82-12.16,6.82-21.52v-87.52
		c0-9.36-2.25-16.53-6.75-21.52C599.26,499.02,592.2,496.52,582.58,496.52z"/>
</g>
</svg>
